<svg width="100%" height="100%" viewBox="0 0 1000 1000" version="1.1" xmlns="http://www.w3.org/2000/svg" xmlns:xlink="http://www.w3.org/1999/xlink" xml:space="preserve" style="fill-rule:evenodd;clip-rule:evenodd;stroke-linejoin:round;stroke-miterlimit:1.41421;">
  <g transform="matrix(-1,3.21625e-16,-3.21625e-16,-1,1225.12,1224.19)">
    <path d="M725.119,321.76C849.449,321.76 1122.24,546.879 1122.24,546.879C1122.24,546.879 849.449,771.999 725.119,771.999C600.789,771.999 500,671.209 500,546.879C500,422.549 600.789,321.76 725.119,321.76Z" style="fill:rgb(239,173,86);fill-opacity:0.74;"/>
  </g>
  <g transform="matrix(1,0,0,1,-224.185,-213.327)">
    <path d="M725.119,321.76C849.449,321.76 1122.24,546.879 1122.24,546.879C1122.24,546.879 849.449,771.999 725.119,771.999C600.789,771.999 500,671.209 500,546.879C500,422.549 600.789,321.76 725.119,321.76Z" style="fill:rgb(90,137,102);fill-opacity:0.74;"/>
  </g>
  <g transform="matrix(1,0,0,1,0,-296.849)">
    <path d="M788.057,713.269C751.978,703.467 725.119,670.071 725.119,630.402C725.119,590.732 751.978,557.336 788.057,547.534C851.338,592.62 897.119,630.402 897.119,630.402C897.119,630.402 851.338,668.183 788.057,713.269Z" style="fill:rgb(239,173,86);"/>
  </g>
  <g transform="matrix(1,0,0,1,-450.239,46.9122)">
    <path d="M788.057,713.269C751.978,703.467 725.119,670.071 725.119,630.402C725.119,590.732 751.978,557.336 788.057,547.534C851.338,592.62 897.119,630.402 897.119,630.402C897.119,630.402 851.338,668.183 788.057,713.269Z" style="fill:rgb(90,137,102);"/>
  </g>
</svg>
